# xmcd
#
# Track frame offsets: 
#        150
#        13265
#        28023
#        39655
#        51895
#        64316
#        80696
#        92815
#        105306
#        118624
#        131507
#        144063
#        156523
#        171020
#        182641
#
# Disc length: 2625 seconds
#
# Revision: 0
# Processed by: cddbd v1.5.2PL0 Copyright (c) Steve Scherf et al.
# Submitted via: ExactAudioCopyFreeDBPlugin 1.0
#
DISCID=c80a3f0f
DTITLE=AK Ausserkontrolle - Panzaknacka
DYEAR=2016
DGENRE=No, thanks.
TTITLE0=Panzaknacka
TTITLE1=Frisch aus dem Knast
TTITLE2=Immer wenn es Nacht wird
TTITLE3=Realer geht's nicht
TTITLE4=District
TTITLE5=Lafayette
TTITLE6=Ohne Ausnahme
TTITLE7=Sie laufen
TTITLE8=6x8
TTITLE9=Gib ihm
TTITLE10=Rein raus
TTITLE11=Deckung
TTITLE12=Dope
TTITLE13=Bira
TTITLE14=2065
EXTD=
EXTT0=
EXTT1=
EXTT2=
EXTT3=
EXTT4=
EXTT5=
EXTT6=
EXTT7=
EXTT8=
EXTT9=
EXTT10=
EXTT11=
EXTT12=
EXTT13=
EXTT14=
PLAYORDER=
